<?xml version="1.0" encoding="utf-8"?>
<!-- Generator: Adobe Illustrator 26.5.0, SVG Export Plug-In . SVG Version: 6.00 Build 0)  -->
<svg version="1.1" xmlns="http://www.w3.org/2000/svg" xmlns:xlink="http://www.w3.org/1999/xlink" x="0px" y="0px"
	 viewBox="0 0 847 149.5" enable-background="new 0 0 847 149.5" xml:space="preserve">
<g id="Layer_2">
</g>
<g id="Layer_1">
	<g>
		<rect x="-15.885" y="3.944" fill="none" width="1366" height="188"/>
		<path fill="#6590D6" d="M0.261,142.012V3.942h47.196c42.849,0,70.794,30.015,70.794,69.138c0,39.33-27.945,68.931-70.794,68.931
			H0.261z M17.442,126.694h30.015c33.534,0,52.992-24.012,52.992-53.613c0-29.808-18.837-53.82-52.992-53.82H17.442V126.694z"/>
		<path fill="#6590D6" d="M188.01,39.546c30.222,0,48.024,23.598,48.024,53.613v3.933h-80.938
			c1.242,18.837,14.49,34.569,36.018,34.569c11.385,0,22.977-4.554,30.843-12.627l7.452,10.143
			c-9.936,9.936-23.391,15.318-39.744,15.318c-29.601,0-50.922-21.321-50.922-52.578C138.744,62.938,159.444,39.546,188.01,39.546z
			 M155.097,85.708h65.619c-0.207-14.904-10.143-33.327-32.913-33.327C166.482,52.38,155.925,70.39,155.097,85.708z"/>
		<path fill="#6590D6" d="M287.781,142.012L246.174,42.03h16.767l33.327,81.972l33.12-81.972h16.974l-41.607,99.981H287.781z"/>
		<path fill="none" d="M428.54,1.665c24.426,0,41.4,10.764,53.613,25.875l-13.662,8.487c-8.694-11.178-23.391-19.044-39.951-19.044
			c-30.222,0-53.199,23.184-53.199,56.097c0,32.706,22.977,56.304,53.199,56.304c16.56,0,30.222-8.073,37.053-14.904V86.329h-47.403
			V71.01h64.584v49.887c-12.834,14.283-31.671,23.805-54.234,23.805c-39.33,0-71.001-28.773-71.001-71.622
			S389.209,1.665,428.54,1.665z"/>
		<path fill="#6590D6" d="M572.611,142.012v-11.385c-8.28,9.108-19.665,13.869-33.12,13.869c-16.974,0-34.983-11.385-34.983-33.12
			c0-22.356,18.009-32.913,34.983-32.913c13.662,0,25.047,4.347,33.12,13.662V74.115c0-13.455-10.764-21.114-25.254-21.114
			c-12.006,0-21.735,4.347-30.636,13.869l-7.245-10.764c10.764-11.178,23.598-16.56,39.951-16.56
			c21.114,0,38.709,9.522,38.709,33.741v68.724H572.611z M572.611,102.061c-6.003-8.28-16.56-12.42-27.531-12.42
			c-14.49,0-24.633,9.108-24.633,21.942c0,12.627,10.143,21.735,24.633,21.735c10.971,0,21.528-4.14,27.531-12.42V102.061z"/>
		<path fill="#6590D6" d="M622.289,121.104V55.692h-16.56V42.03h16.56V14.706h15.525V42.03h20.286v13.662h-20.286v62.1
			c0,7.452,3.312,12.834,10.143,12.834c4.347,0,8.487-1.863,10.557-4.14l4.554,11.592c-3.933,3.726-9.522,6.417-18.63,6.417
			C629.741,144.496,622.289,136.009,622.289,121.104z"/>
		<path fill="#6590D6" d="M674.244,91.917c0-28.98,19.044-52.371,49.474-52.371c30.429,0,49.473,23.391,49.473,52.371
			s-19.044,52.578-49.473,52.578C693.288,144.496,674.244,120.897,674.244,91.917z M756.838,91.917
			c0-20.286-11.799-38.502-33.12-38.502s-33.327,18.216-33.327,38.502c0,20.493,12.006,38.709,33.327,38.709
			S756.838,112.411,756.838,91.917z"/>
		<path fill="#6590D6" d="M798.442,142.012V42.03h15.524v16.146c8.073-10.557,19.665-18.216,33.327-18.216v15.939
			c-1.862-0.414-3.726-0.621-6.21-0.621c-9.521,0-22.562,7.866-27.117,15.939v70.794H798.442z"/>
	</g>
</g>
<g id="Layer_3" display="none">
</g>
<g id="Layer_4">
	<g id="XMLID_00000142140920643322138680000004056988019339699875_">
		<g>
			<path fill="#6590D6" d="M511.46,41.04c0.63,5.03-3.27,10.46-9.49,11.86l-2.37,7.12l-13.05-7.12l-8.31,5.93l-8.3-7.12l-13.06,8.31
				l-10.67-4.75v-4.74L431.97,61.2v14.24l8.3-11.86l8.31,9.49l3.56-7.12l7.12,9.49l9.49-5.93l13.05,7.12l8.3-9.49l11.87,8.3
				l2.37-4.74c1.74,8.26,2.85,17.86-1.18,20.17c-1.77,1-3.91,0.27-4.75,0c-17.48-5.7-55.53-1.48-68.81,0
				c-11.74,1.28-15.74,2.78-18.99,5.93c-6.87,6.66-8.26,17.05-4.74,24.91c4.36,9.74,14.82,12.32,17.79,13.05
				c9.46,2.33,16.25-1.08,16.61,0c0.6,1.79-16.92,14.18-39.15,14.24c-4.98,0.01-22.41-0.55-37.96-13.05
				c-19.04-15.31-28.66-43.19-20.17-66.44c6.1-16.72,19.64-25.75,23.73-28.47c12.73-8.5,25.79-10.67,29.66-10.68
				c3.98-0.01,7.12,0,7.12,0c4.51,0.01,4.99,0.04,5.93,0c3.89-0.16,5.59-1.03,10.68-2.37c7.06-1.88,10.67-2.83,15.42-2.38
				c4.22,0.41,7.02,1.7,8.3,2.38c1.87,0.97,3.07,1.97,3.56,2.37c4.7,3.72,11.66,5.01,16.61,5.93c9.6,1.78,17.45,0.73,21.36,0
				c4.97-0.93,9-2.36,11.86-3.56c1.03-0.34,3.89-1.12,7.12,0C507.9,33.97,510.98,37.19,511.46,41.04z M441.46,39.85
				c0.31-2.43-5.29-5.02-8.3-5.93c-1.12-0.34-7.6-2.29-11.87,1.18c-0.54,0.44-0.93,0.87-1.18,1.19c1,0.03,2.41,0.24,3.55,1.19
				c1.78,1.47,1.36,3.41,2.38,4.74C428.81,45.86,441.02,43.29,441.46,39.85z"/>
		</g>
		<g>
			<path fill="none" stroke="#6590D6" stroke-miterlimit="10" d="M504.34,70.7c1.74,8.26,2.85,17.86-1.18,20.17
				c-1.77,1-3.91,0.27-4.75,0c-17.48-5.7-55.53-1.48-68.81,0c-11.74,1.28-15.74,2.78-18.99,5.93c-6.87,6.66-8.26,17.05-4.74,24.91
				c4.36,9.74,14.82,12.32,17.79,13.05c9.46,2.33,16.25-1.08,16.61,0c0.6,1.79-16.92,14.18-39.15,14.24
				c-4.98,0.01-22.41-0.55-37.96-13.05c-19.04-15.31-28.66-43.19-20.17-66.44c6.1-16.72,19.64-25.75,23.73-28.47
				c12.73-8.5,25.79-10.67,29.66-10.68c3.98-0.01,7.12,0,7.12,0c4.51,0.01,4.99,0.04,5.93,0c3.89-0.16,5.59-1.03,10.68-2.37
				c7.06-1.88,10.67-2.83,15.42-2.38c4.22,0.41,7.02,1.7,8.3,2.38c1.87,0.97,3.07,1.97,3.56,2.37c4.7,3.72,11.66,5.01,16.61,5.93
				c9.6,1.78,17.45,0.73,21.36,0c4.97-0.93,9-2.36,11.86-3.56c1.03-0.34,3.89-1.12,7.12,0c3.56,1.24,6.64,4.46,7.12,8.31
				c0.63,5.03-3.27,10.46-9.49,11.86l-2.37,7.12l-13.05-7.12l-8.31,5.93l-8.3-7.12l-13.06,8.31l-10.67-4.75v-4.74L431.97,61.2v14.24
				l8.3-11.86l8.31,9.49l3.56-7.12l7.12,9.49l9.49-5.93l13.05,7.12l8.3-9.49l11.87,8.3L504.34,70.7z"/>
			<path fill="none" stroke="#6590D6" stroke-miterlimit="10" d="M420.11,36.29c0.25-0.32,0.64-0.75,1.18-1.19
				c4.27-3.47,10.75-1.52,11.87-1.18c3.01,0.91,8.61,3.5,8.3,5.93c-0.44,3.44-12.65,6.01-15.42,2.37c-1.02-1.33-0.6-3.27-2.38-4.74
				C422.52,36.53,421.11,36.32,420.11,36.29z"/>
		</g>
	</g>
</g>
<g id="Layer_5">
</g>
</svg>
